<svg viewBox="0 0 2500 2500" width="2500" height="2500"><defs><radialGradient cx="332.1" cy="2511.8" r="3263.5" gradientUnits="userSpaceOnUse"><stop offset=".09" stop-color="#fa8f21"/><stop offset=".78" stop-color="#d82d7e"/></radialGradient><radialGradient cx="1516.1" cy="2623.8" r="2572.1" gradientUnits="userSpaceOnUse"><stop offset=".64" stop-color="#8c3aaa" stop-opacity="0"/><stop offset="1" stop-color="#8c3aaa"/></radialGradient></defs><path d="M833.4 1250c0-230.1 186.5-416.7 416.6-416.7s416.7 186.6 416.7 416.7-186.6 416.7-416.7 416.7S833.4 1480.1 833.4 1250m-225.3 0c0 354.5 287.4 641.9 641.9 641.9S1891.9 1604.5 1891.9 1250 1604.5 608.1 1250 608.1 608.1 895.5 608.1 1250M1767.3 582.7a150 150 0 1 0 150.1-149.9h-0.1a150.1 150.1 0 0 0-150 149.9M745 2267.5c-121.9-5.5-188.1-25.8-232.1-43-58.4-22.7-100-49.8-143.8-93.5s-70.9-85.3-93.5-143.7c-17.2-44-37.5-110.3-43-232.1-6.1-131.8-7.3-171.3-7.3-505.1s1.3-373.3 7.3-505.1c5.6-121.9 26-188 43-232.1 22.7-58.4 49.8-100 93.5-143.8s85.3-70.9 143.8-93.5c44-17.2 110.3-37.5 232.1-43 131.8-6.1 171.3-7.3 505-7.3s373.3 1.3 505.2 7.3c121.9 5.6 188 26 232.1 43 58.4 22.6 100 49.8 143.8 93.5s70.8 85.4 93.5 143.8c17.2 44 37.5 110.3 43 232.1 6.1 131.9 7.3 171.3 7.3 505.2s-1.2 373.3-7.3 505.2c-5.5 121.9-25.9 188.1-43 232.1-22.7 58.4-49.8 100-93.5 143.7s-85.4 70.8-143.8 93.5c-44 17.2-110.3 37.5-232.1 43-131.8 6.1-171.3 7.3-505.1 7.3s-373.3-1.2-505-7.3M734.7 7.6c-133.1 6.1-224 27.2-303.4 58.1C349 97.5 279.4 140.4 209.8 209.8S97.5 349 65.6 431.2c-30.9 79.5-52 170.3-58.1 303.4C1.4 867.9 0 910.5 0 1250s1.4 382.1 7.6 515.4c6.1 133.1 27.2 224 58.1 303.4 31.9 82.2 74.6 152 144.2 221.4S349 2402.4 431.2 2434.4c79.6 30.9 170.3 52 303.4 58.1C868 2498.5 910.5 2500 1250 2500s382.1-1.4 515.4-7.6c133.1-6.1 224-27.2 303.4-58.1 82.2-32 151.9-74.7 221.4-144.2s112.2-139.2 144.2-221.4c30.9-79.5 52.1-170.3 58.1-303.4 6.1-133.4 7.5-175.9 7.5-515.3s-1.4-382.1-7.5-515.3c-6.1-133.1-27.2-224-58.1-303.4-32-82.2-74.7-151.9-144.2-221.4S2151 97.5 2068.9 65.6c-79.6-30.9-170.4-52.1-303.4-58.1C1632.2 1.5 1589.6 0 1250.1 0S868 1.4 734.7 7.6" fill="url(#0)"/><path d="M833.4 1250c0-230.1 186.5-416.7 416.6-416.7s416.7 186.6 416.7 416.7-186.6 416.7-416.7 416.7S833.4 1480.1 833.4 1250m-225.3 0c0 354.5 287.4 641.9 641.9 641.9S1891.9 1604.5 1891.9 1250 1604.5 608.1 1250 608.1 608.1 895.5 608.1 1250M1767.3 582.7a150 150 0 1 0 150.1-149.9h-0.1a150.1 150.1 0 0 0-150 149.9M745 2267.5c-121.9-5.5-188.1-25.8-232.1-43-58.4-22.7-100-49.8-143.8-93.5s-70.9-85.3-93.5-143.7c-17.2-44-37.5-110.3-43-232.1-6.1-131.8-7.3-171.3-7.3-505.1s1.3-373.3 7.3-505.1c5.6-121.9 26-188 43-232.1 22.7-58.4 49.8-100 93.5-143.8s85.3-70.9 143.8-93.5c44-17.2 110.3-37.5 232.1-43 131.8-6.1 171.3-7.3 505-7.3s373.3 1.3 505.2 7.3c121.9 5.6 188 26 232.1 43 58.4 22.6 100 49.8 143.8 93.5s70.8 85.4 93.5 143.8c17.2 44 37.5 110.3 43 232.1 6.1 131.9 7.3 171.3 7.3 505.2s-1.2 373.3-7.3 505.2c-5.5 121.9-25.9 188.1-43 232.1-22.7 58.4-49.8 100-93.5 143.7s-85.4 70.8-143.8 93.5c-44 17.2-110.3 37.5-232.1 43-131.8 6.1-171.3 7.3-505.1 7.3s-373.3-1.2-505-7.3M734.7 7.6c-133.1 6.1-224 27.2-303.4 58.1C349 97.5 279.4 140.4 209.8 209.8S97.5 349 65.6 431.2c-30.9 79.5-52 170.3-58.1 303.4C1.4 867.9 0 910.5 0 1250s1.4 382.1 7.6 515.4c6.1 133.1 27.2 224 58.1 303.4 31.9 82.2 74.6 152 144.2 221.4S349 2402.4 431.2 2434.4c79.6 30.9 170.3 52 303.4 58.1C868 2498.5 910.5 2500 1250 2500s382.1-1.4 515.4-7.6c133.1-6.1 224-27.2 303.4-58.1 82.2-32 151.9-74.7 221.4-144.2s112.2-139.2 144.2-221.4c30.9-79.5 52.1-170.3 58.1-303.4 6.1-133.4 7.5-175.9 7.5-515.3s-1.4-382.1-7.5-515.3c-6.1-133.1-27.2-224-58.1-303.4-32-82.2-74.7-151.9-144.2-221.4S2151 97.5 2068.9 65.6c-79.6-30.9-170.4-52.1-303.4-58.1C1632.2 1.5 1589.6 0 1250.1 0S868 1.4 734.7 7.6" fill="url(#1)"/></svg>
