<?xml version="1.0" standalone="no"?>
<!DOCTYPE svg PUBLIC "-//W3C//DTD SVG 20010904//EN"
 "http://www.w3.org/TR/2001/REC-SVG-20010904/DTD/svg10.dtd">
<svg version="1.0" xmlns="http://www.w3.org/2000/svg"
 width="40" height="18" viewBox="0 0 190 60"
 >

<g transform="translate(0.000000,77.000000) scale(0.10000,-0.100000)"
fill="#000000" stroke="none">
<path d="M0 525 l0 -265 55 0 55 0 0 198 1 197 49 -190 c27 -104 50 -193 50
-197 0 -5 26 -8 58 -8 l58 0 17 63 c9 34 35 125 56 202 l40 140 -6 -202 -6
-203 56 0 57 0 0 265 0 266 -82 -3 -83 -3 -18 -65 c-9 -36 -32 -122 -51 -191
l-33 -127 -43 172 c-61 241 -44 216 -145 216 l-85 0 0 -265z"/>
<path d="M680 525 l0 -265 143 0 c166 0 207 13 255 79 40 55 55 115 51 208 -6
128 -59 205 -158 233 -20 5 -93 10 -163 10 l-128 0 0 -265z m264 141 c85 -36
94 -241 12 -285 -13 -7 -54 -13 -92 -14 l-69 -2 -3 158 -3 157 61 0 c33 0 75
-6 94 -14z"/>
<path d="M1440 525 l0 -265 60 0 60 0 0 110 0 110 100 0 100 0 0 -110 0 -110
60 0 60 0 0 265 0 265 -60 0 -60 0 0 -105 0 -105 -100 0 -100 0 0 105 0 105
-60 0 -60 0 0 -265z"/>
<path style="fill:#0793cd" d="M1220 363 c-36 -47 -8 -103 52 -103 59 0 88 65 48 108 -29 31 -73 29
-100 -5z"/>

</g>
</svg>
