<?xml version="1.0" standalone="no"?>
<!DOCTYPE svg PUBLIC "-//W3C//DTD SVG 20010904//EN"
 "http://www.w3.org/TR/2001/REC-SVG-20010904/DTD/svg10.dtd">
<svg version="1.0" xmlns="http://www.w3.org/2000/svg"
 width="225.000000pt" height="268.000000pt" viewBox="0 0 225.000000 268.000000"
 preserveAspectRatio="xMidYMid meet">

<g transform="translate(0.00000,280.000000) scale(0.100000,-0.100000)"
fill="#000000" stroke="none">
<path d="M80 1645 l0 -1035 1040 0 1040 0 0 1035 0 1035 -1040 0 -1040 0 0
-1035z m487 -351 c26 -9 60 -25 76 -36 l27 -19 -30 -44 -30 -44 -53 24 c-92
43 -172 29 -165 -30 3 -32 27 -45 152 -81 94 -28 146 -84 146 -159 0 -156
-188 -224 -368 -134 -36 19 -68 39 -70 46 -2 7 12 28 30 47 l33 36 59 -30 c72
-37 145 -41 176 -10 45 45 20 70 -110 110 -113 35 -152 65 -170 128 -39 148
122 255 297 196z m470 4 c6 -7 58 -128 118 -268 59 -140 112 -263 117 -273 8
-17 4 -18 -57 -15 l-67 3 -22 55 -22 55 -125 3 -124 3 -23 -61 -24 -60 -63 0
-63 0 117 273 c64 149 120 278 124 285 5 7 29 12 56 12 27 0 53 -6 58 -12z
m865 -3 c24 -9 59 -28 77 -43 l32 -27 -38 -44 -38 -43 -39 26 c-92 62 -204 38
-252 -57 -21 -39 -21 -135 0 -174 39 -77 128 -110 211 -79 24 10 49 24 55 32
19 22 33 17 71 -22 l34 -36 -39 -33 c-55 -48 -122 -69 -210 -63 -83 6 -134 29
-188 85 -142 146 -89 400 98 473 61 24 164 26 226 5z m-462 -275 l0 -280 -65
0 -65 0 0 280 0 280 65 0 65 0 0 -280z"/>
<path d="M933 1067 c-18 -45 -33 -86 -33 -90 0 -4 32 -7 70 -7 39 0 70 4 70 9
0 16 -63 171 -69 171 -3 0 -21 -37 -38 -83z"/>

</g>
</svg>
